<svg xmlns="http://www.w3.org/2000/svg" width="32" height="32" viewBox="0 0 500 500">
<rect width="500" height="500" rx="72" fill="#0A0A0A"/>
<path d="M 169.17 323.19 C171.11,324.51 236.27,323.76 243.00,322.34 C254.18,319.99 256.23,318.81 280.36,301.00 C307.30,281.10 326.35,267.10 341.57,256.00 C365.16,238.79 374.25,232.00 376.75,229.71 C378.99,227.66 379.00,227.53 378.98,196.58 C378.98,179.48 378.64,164.99 378.23,164.36 C377.60,163.38 367.41,155.86 349.77,143.36 C347.16,141.52 344.24,139.37 343.27,138.59 C340.60,136.45 313.96,116.70 310.35,114.19 L 307.19 112.00 L 237.60 112.00 C198.82,112.00 168.00,112.39 168.00,112.87 C168.00,115.94 177.53,142.15 180.11,146.16 C185.09,153.93 192.36,159.49 201.42,162.44 L 209.26 165.00 L 292.20 165.00 C361.10,165.00 375.09,165.23 374.82,166.34 C374.65,167.08 368.20,172.39 360.50,178.15 C352.80,183.90 329.40,201.38 308.50,216.99 C287.60,232.60 260.67,252.75 248.64,261.77 C224.44,279.94 223.16,280.89 190.67,305.20 C174.09,317.61 168.20,322.53 169.17,323.19 ZM 178.43 377.66 L 192.35 388.00 L 262.24 388.00 C328.35,388.00 332.11,387.91 331.59,386.25 C331.29,385.29 329.68,380.00 327.99,374.50 C326.31,369.00 323.66,361.77 322.11,358.44 C317.39,348.33 306.92,339.48 295.81,336.23 C294.54,335.86 255.59,335.42 209.25,335.25 C142.08,335.01 125.00,334.69 125.00,333.68 C125.00,332.98 128.94,329.53 133.75,326.01 C138.56,322.48 143.87,318.45 145.55,317.05 C148.75,314.39 149.22,314.02 163.00,303.88 C167.68,300.44 189.95,283.84 212.50,266.99 C265.05,227.73 318.82,187.63 326.46,182.01 C332.36,177.67 332.40,177.62 329.71,176.90 C325.80,175.85 260.54,175.83 257.80,176.87 C256.54,177.35 253.02,178.57 250.00,179.56 C246.98,180.56 243.60,181.86 242.50,182.44 C240.37,183.57 226.37,193.58 211.35,204.72 C206.32,208.45 193.95,217.53 183.85,224.89 C173.76,232.25 159.43,242.79 152.00,248.31 C144.57,253.82 136.58,259.72 134.23,261.42 C131.88,263.11 127.94,266.02 125.48,267.88 L 121.00 271.27 L 120.95 281.88 C120.73,323.79 121.09,334.44 122.80,336.33 C123.73,337.36 133.49,344.75 144.50,352.76 C155.50,360.76 170.77,371.97 178.43,377.66 Z" fill="#A2E635"/>
</svg>
