<svg xmlns="http://www.w3.org/2000/svg" width="500" height="500" viewBox="0 0 500 500">
<g>
<path d="M 426.07 426.96 C424.75,427.67 370.72,428.00 258.32,427.99 L 92.50 427.98 L 87.33 425.57 C81.75,422.98 77.80,419.15 74.25,412.90 L 72.00 408.95 L 72.00 244.46 C72.00,237.45 72.00,230.74 72.00,224.30 C71.99,84.72 71.99,77.87 75.40,74.76 C75.73,74.45 76.10,74.18 76.50,73.83 C78.39,72.16 87.35,72.06 243.26,72.03 L 408.02 72.00 L 412.45 74.08 C418.47,76.91 422.72,81.20 425.58,87.34 L 427.98 92.50 L 427.99 259.21 C428.00,423.02 427.97,425.95 426.07,426.96 ZM 169.17 323.19 C171.11,324.51 236.27,323.76 243.00,322.34 C254.18,319.99 256.23,318.81 280.36,301.00 C307.30,281.10 326.35,267.10 341.57,256.00 C365.16,238.79 374.25,232.00 376.75,229.71 C378.99,227.66 379.00,227.53 378.98,196.58 C378.98,179.48 378.64,164.99 378.23,164.36 C377.60,163.38 367.41,155.86 349.77,143.36 C347.16,141.52 344.24,139.37 343.27,138.59 C340.60,136.45 313.96,116.70 310.35,114.19 L 307.19 112.00 L 237.60 112.00 C198.82,112.00 168.00,112.39 168.00,112.87 C168.00,115.94 177.53,142.15 180.11,146.16 C185.09,153.93 192.36,159.49 201.42,162.44 L 209.26 165.00 L 292.20 165.00 C361.10,165.00 375.09,165.23 374.82,166.34 C374.65,167.08 368.20,172.39 360.50,178.15 C352.80,183.90 329.40,201.38 308.50,216.99 C287.60,232.60 260.67,252.75 248.64,261.77 C224.44,279.94 223.16,280.89 190.67,305.20 C174.09,317.61 168.20,322.53 169.17,323.19 ZM 178.43 377.66 L 192.35 388.00 L 262.24 388.00 C328.35,388.00 332.11,387.91 331.59,386.25 C331.29,385.29 329.68,380.00 327.99,374.50 C326.31,369.00 323.66,361.77 322.11,358.44 C317.39,348.33 306.92,339.48 295.81,336.23 C294.54,335.86 255.59,335.42 209.25,335.25 C142.08,335.01 125.00,334.69 125.00,333.68 C125.00,332.98 128.94,329.53 133.75,326.01 C138.56,322.48 143.87,318.45 145.55,317.05 C148.75,314.39 149.22,314.02 163.00,303.88 C167.68,300.44 189.95,283.84 212.50,266.99 C265.05,227.73 318.82,187.63 326.46,182.01 C332.36,177.67 332.40,177.62 329.71,176.90 C325.80,175.85 260.54,175.83 257.80,176.87 C256.54,177.35 253.02,178.57 250.00,179.56 C246.98,180.56 243.60,181.86 242.50,182.44 C240.37,183.57 226.37,193.58 211.35,204.72 C206.32,208.45 193.95,217.53 183.85,224.89 C173.76,232.25 159.43,242.79 152.00,248.31 C144.57,253.82 136.58,259.72 134.23,261.42 C131.88,263.11 127.94,266.02 125.48,267.88 L 121.00 271.27 L 120.95 281.88 C120.73,323.79 121.09,334.44 122.80,336.33 C123.73,337.36 133.49,344.75 144.50,352.76 C155.50,360.76 170.77,371.97 178.43,377.66 Z" fill="rgb(176,229,11)"/>
<path d="M 0.00 250.00 L 0.00 0.00 L 250.00 0.00 L 500.00 0.00 L 500.00 250.00 L 500.00 500.00 L 250.00 500.00 L 0.00 500.00 L 0.00 250.00 ZM 426.07 426.96 C427.97,425.95 428.00,423.02 427.99,259.21 L 427.98 92.50 L 425.58 87.34 C422.72,81.20 418.47,76.91 412.45,74.08 L 408.02 72.00 L 243.26 72.03 C87.35,72.06 78.39,72.16 76.50,73.83 C71.80,77.97 72.00,70.50 72.00,244.46 L 72.00 408.95 L 74.25 412.90 C77.80,419.15 81.75,422.98 87.33,425.57 L 92.50 427.98 L 258.32 427.99 C370.72,428.00 424.75,427.67 426.07,426.96 ZM 178.43 377.66 C170.77,371.97 155.50,360.76 144.50,352.76 C133.49,344.75 123.73,337.36 122.80,336.33 C121.09,334.44 120.73,323.79 120.95,281.88 L 121.00 271.27 L 125.48 267.88 C127.94,266.02 131.88,263.11 134.23,261.42 C136.58,259.72 144.57,253.82 152.00,248.31 C159.43,242.79 173.76,232.25 183.85,224.89 C193.95,217.53 206.32,208.45 211.35,204.72 C226.37,193.58 240.37,183.57 242.50,182.44 C243.60,181.86 246.98,180.56 250.00,179.56 C253.02,178.57 256.54,177.35 257.80,176.87 C260.54,175.83 325.80,175.85 329.71,176.90 C332.40,177.62 332.36,177.67 326.46,182.01 C318.82,187.63 265.05,227.73 212.50,266.99 C189.95,283.84 167.68,300.44 163.00,303.88 C149.22,314.02 148.75,314.39 145.55,317.05 C143.87,318.45 138.56,322.48 133.75,326.01 C128.94,329.53 125.00,332.98 125.00,333.68 C125.00,334.69 142.08,335.01 209.25,335.25 C255.59,335.42 294.54,335.86 295.81,336.23 C306.92,339.48 317.39,348.33 322.11,358.44 C323.66,361.77 326.31,369.00 327.99,374.50 C329.68,380.00 331.29,385.29 331.59,386.25 C332.11,387.91 328.35,388.00 262.24,388.00 L 192.35 388.00 L 178.43 377.66 ZM 169.17 323.19 C168.20,322.53 174.09,317.61 190.67,305.20 C223.16,280.89 224.44,279.94 248.64,261.77 C260.67,252.75 287.60,232.60 308.50,216.99 C329.40,201.38 352.80,183.90 360.50,178.15 C368.20,172.39 374.65,167.08 374.82,166.34 C375.09,165.23 361.10,165.00 292.20,165.00 L 209.26 165.00 L 201.42 162.44 C192.36,159.49 185.09,153.93 180.11,146.16 C177.53,142.15 168.00,115.94 168.00,112.87 C168.00,112.39 198.82,112.00 237.60,112.00 L 307.19 112.00 L 310.35 114.19 C313.96,116.70 340.60,136.45 343.27,138.59 C344.24,139.37 347.16,141.52 349.77,143.36 C367.41,155.86 377.60,163.38 378.23,164.36 C378.64,164.99 378.98,179.48 378.98,196.58 C379.00,227.53 378.99,227.66 376.75,229.71 C374.25,232.00 365.16,238.79 341.57,256.00 C326.35,267.10 307.30,281.10 280.36,301.00 C256.23,318.81 254.18,319.99 243.00,322.34 C236.27,323.76 171.11,324.51 169.17,323.19 Z" fill="rgb(254,254,252)"/>
</g>
</svg>